<svg xmlns="http://www.w3.org/2000/svg" viewBox="0 0 64 64" fill="none">
  <rect width="64" height="64" rx="12" fill="#6366f1"/>
  <path d="M20 28a4 4 0 1 1 8 0 4 4 0 0 1-8 0Zm16 0a4 4 0 1 1 8 0 4 4 0 0 1-8 0Z" fill="#fff"/>
  <path d="M22 40c0-1.1.9-2 2-2h16a2 2 0 0 1 2 2v0a6 6 0 0 1-6 6H28a6 6 0 0 1-6-6v0Z" fill="#fff"/>
  <rect x="14" y="14" width="36" height="28" rx="6" stroke="#fff" stroke-width="2" fill="none"/>
  <path d="M26 14V10m12 4V10" stroke="#fff" stroke-width="2" stroke-linecap="round"/>
</svg>
